<svg width="64" height="64" viewBox="0 0 64 64" fill="none" xmlns="http://www.w3.org/2000/svg">
<path d="M37.8594 25.7472L33.5 30.1066M26.1303 37.4763L30.6066 33M27.864 31.5L24.009 35.3549C23.1362 36.2278 21.9093 36.6487 20.6845 36.4956L17.785 36.1332C17.27 36.0688 16.7542 36.2458 16.3873 36.6127L14.2677 38.7323C13.2467 39.7533 14.4826 41.4049 15.7501 40.7136C15.855 40.6564 15.951 40.5845 16.0355 40.5001L16.3049 40.2307C17.6941 38.8414 19.9004 38.7041 21.4512 39.9103L21.9186 40.2738L23.3328 41.688L23.6963 42.1554C24.9025 43.7062 24.7652 45.9125 23.3759 47.3017L23.1065 47.5711C23.0221 47.6556 22.9502 47.7516 22.893 47.8565C22.2017 49.124 23.8533 50.3599 24.8743 49.3389L26.9939 47.2194C27.3608 46.8524 27.5378 46.3366 27.4734 45.8216L27.111 42.9221C26.9579 41.6973 27.3788 40.4704 28.2517 39.5976L32.4943 35.3549M31.4954 27.8686L35.738 23.6259C36.6109 22.7531 37.0318 21.5262 36.8787 20.3014L36.5163 17.4019C36.4519 16.8869 36.6289 16.3711 36.9958 16.0042L39.1154 13.8846C40.1364 12.8636 41.788 14.0995 41.0967 15.367C41.0395 15.4719 40.9676 15.5679 40.8832 15.6524L40.6138 15.9218C39.2245 17.311 39.0872 19.5173 40.2934 21.0681L40.6569 21.5355L42.0711 22.9497L42.5385 23.3132C44.0893 24.5194 46.2956 24.3821 47.6848 22.9928L47.9542 22.7234C48.0387 22.639 48.1347 22.5671 48.2396 22.5099C49.5071 21.8186 50.743 23.4702 49.722 24.4912L47.6024 26.6108C47.2355 26.9777 46.7197 27.1547 46.2047 27.0903L43.3052 26.7279C42.0804 26.5748 40.8535 26.9957 39.9807 27.8686L35.738 32.1112" stroke="black" stroke-width="2"/>
<path d="M21.1924 23.8284L30.3848 33.0208L33.9203 36.5563M21.1924 23.8284V23.8284C20.0632 24.9576 18.2016 24.8485 17.2121 23.5951L13.7678 19.2322L19.4246 13.5754L23.7875 17.0197C25.0409 18.0093 25.15 19.8708 24.0208 21V21M21.1924 23.8284L24.0208 21M24.0208 21L36.7487 33.7279M36.7487 33.7279L37.8094 32.6673C38.981 31.4957 40.8805 31.4957 42.052 32.6673L50.1838 40.799C51.3553 41.9706 51.3553 43.8701 50.1838 45.0416L45.234 49.9914C44.0624 51.163 42.163 51.163 40.9914 49.9914L32.8596 41.8596C31.6881 40.6881 31.6881 38.7886 32.8596 37.617L33.9203 36.5563M36.7487 33.7279L33.9203 36.5563M35.6881 38.3241L43.8198 46.4558M38.5165 35.4957L46.6482 43.6274" stroke="black" stroke-width="2"/>
</svg>
