<svg width="27" height="30" viewBox="0 0 27 30" fill="none" xmlns="http://www.w3.org/2000/svg">
<path d="M24.2243 9.16477L22.891 10.4981C25.291 12.8981 25.291 16.6314 22.891 19.1648L24.2243 20.4981C27.5577 17.4314 27.5577 12.3648 24.2243 9.16477ZM21.4243 11.9648L20.091 13.2981C20.7577 14.2314 20.7577 15.4314 20.091 16.3648L21.4243 17.6981C23.0243 16.0981 23.0243 13.6981 21.4243 11.9648ZM16.091 0.231445H2.75767C1.291 0.231445 0.0910034 1.43144 0.0910034 2.89811V26.8981C0.0910034 28.3648 1.291 29.5648 2.75767 29.5648H16.091C17.5577 29.5648 18.7577 28.3648 18.7577 26.8981V2.89811C18.7577 1.43144 17.5577 0.231445 16.091 0.231445ZM16.091 25.5648H2.75767V4.23144H16.091V25.5648Z"/>
</svg>
